PathFileType	4	(X/Y/Z)	OpenSim_Sub02_EMGBaseline_Accel.trc
DataRate	CameraRate	NumFrames	NumMarkers	Units	OrigDataRate	OrigDataStartFrame	OrigNumFrames
100	100	38	8	m	100	3364	6727
Frame#	Time	torso_imu_offset_imu	pelvis_imu_offset_imu	tibia_r_imu_offset_imu	femur_r_imu_offset_imu	tibia_l_imu_offset_imu	femur_l_imu_offset_imu	toes_r_imu_offset_imu	toes_l_imu_offset_imu
				X1	Y1	Z1	X2	Y2	Z2	X3	Y3	Z3	X4	Y4	Z4	X5	Y5	Z5	X6	Y6	Z6	X7	Y7	Z7	X8		Y8	Z8	

3364	33.63000000	5.71094276	1.54225773	6.14881785	6.51375611	2.62256250	5.22177171	9.16302732	6.96283222	3.81168144	11.03112449	1.58656125	1.34186928	9.70606873	-4.09673919	-1.92843506	7.82447181	-1.30585947	-1.79738993	17.93490531	2.92514871	8.02492521	3.52748427	0.16544352	11.72182258
3365	33.64000000	6.02084847	1.44990913	5.92308343	7.10128798	1.07003821	4.98059640	8.25187999	8.20286951	3.24158647	11.39747217	0.55233894	1.65510830	11.91635507	1.63559037	-0.80081869	8.68874226	-0.64081821	-2.78359612	15.61427968	0.66652458	7.40790293	3.81357417	1.25235818	11.78121519
3366	33.65000000	6.83473213	1.40950912	5.94332317	8.11093771	-0.37037210	4.84290756	7.58948048	9.17055034	2.22490093	11.69579172	-0.27001750	1.92662451	12.80075875	6.39804047	0.42525418	9.03232929	-0.57613982	-3.84700232	11.87971032	-0.70850265	9.15774245	3.65932668	1.52169853	11.81743316
3367	33.66000000	7.84674403	1.31462738	6.09144127	9.14893331	-1.51588231	4.78358109	6.90703783	9.86262886	1.84377117	11.67969470	-0.93885755	1.99653002	11.83330066	8.95657037	1.52539034	8.86142998	-0.65314102	-4.75350809	7.70707164	-0.85874009	8.99968041	3.32701510	1.11850697	11.97917656
3368	33.67000000	8.73543477	1.10899837	6.16828962	9.79992167	-2.13311114	4.74239931	6.25270720	10.26858471	1.92167677	11.35799772	-1.73277030	1.87216753	10.03199008	9.18434542	1.44598419	8.79421968	-0.59021774	-4.81160258	4.12908335	-1.47471225	7.00574805	3.39537329	1.06276109	11.98955210
3369	33.68000000	9.35587614	0.81048478	6.33598926	9.69629776	-2.23917886	4.74422479	5.36611436	10.12530516	2.33994375	11.12873031	-2.36371114	1.87331410	9.04159337	7.66542356	0.25872013	8.99069904	-0.37242627	-3.99019059	-0.23518678	-2.10371629	4.13634128	3.35999198	1.19470879	11.90322617
3370	33.69000000	9.66758756	0.50049902	6.59506972	9.27541766	-1.91295803	4.57596453	4.15739285	9.39627341	3.09235523	10.94734154	-2.60165488	1.92491168	9.49044279	5.07919646	-0.76706497	9.21253816	-0.30503442	-2.76190381	2.68924916	1.90090730	4.64780645	3.35561255	1.03973211	11.72386372
3371	33.70000000	9.62347937	0.25032413	6.81844774	9.32200086	-1.45146491	4.28149083	2.63656137	8.37752395	4.58648222	10.64278727	-2.68774634	2.04196519	10.04811745	2.19939372	-1.52609862	9.41796821	-0.74547217	-1.78848205	12.04982640	5.11881761	11.20771353	3.52753197	1.04074489	11.84661232
3372	33.71000000	9.38189607	0.17585607	7.04633309	9.78019302	-1.06196822	4.03099302	1.11268069	8.40326565	5.99531902	10.40094888	-2.83402300	2.27180946	10.14365440	-0.61224923	-2.48272931	9.44378351	-0.97101690	-1.57468012	15.06121051	-2.77189011	13.50037605	3.06974221	1.20204495	12.07723325
3373	33.72000000	9.18667945	0.16639446	7.20537479	10.14268042	-0.65364333	3.85867957	-0.33572574	9.50944470	5.45976421	10.40755258	-3.00794717	2.47819099	10.14646083	-2.96753067	-3.17471529	9.08263089	-0.95771372	-2.17147909	16.55650583	-11.73139370	12.57637390	2.98519730	1.20944617	11.78003531
3374	33.73000000	9.21802198	0.12936770	7.29742124	10.11817268	-0.23534209	3.71388819	-1.53575811	10.23329469	3.63050450	10.62369019	-3.18888619	2.54167957	10.08881239	-4.05470573	-3.16268718	8.63962519	-1.03040773	-3.21217688	18.30428530	-11.67418559	13.89205349	3.44847620	1.35702787	11.83208187
3375	33.74000000	9.40620487	0.15717460	7.36444526	9.78447322	0.16229055	3.60490917	-1.71929809	9.38034843	3.24748041	10.78159704	-3.06996259	2.27608946	9.88130785	-3.53043530	-2.76028950	8.62743572	-1.07289911	-4.01643976	16.44856846	-7.60759193	12.84383991	3.70490176	1.31911046	11.81229983
3376	33.75000000	9.46879168	0.18504977	7.40499299	9.39657055	0.48286764	3.45199899	-0.42730428	7.92662385	4.46315736	10.66954427	-2.74448272	1.93546545	9.76021895	-2.27808133	-2.23391920	8.84991856	-1.03069382	-4.12506896	12.37028636	-5.57337267	10.55026575	3.66913012	1.12711327	11.84318832
3377	33.76000000	9.29481255	0.23494521	7.46425615	9.13902106	0.78489263	3.24287710	1.93504422	7.34241868	5.07268667	10.41121839	-2.43281602	1.70065475	10.02079435	-1.23413877	-1.69319544	9.00281555	-1.02559473	-3.65191279	9.02666995	-2.92499750	8.74753007	3.27875326	1.13417970	11.80857902
3378	33.77000000	8.87398325	0.27572202	7.41006215	9.03515858	0.90137198	3.10730111	4.32221955	6.43919920	4.39003723	10.19717219	-2.10344369	1.61076844	10.31974028	-0.33075661	-1.20309814	9.19644899	-1.22354700	-3.12241075	5.61500219	0.39311719	7.14720258	3.23824747	1.12933579	11.71793584
3379	33.78000000	8.39392532	0.28296771	7.30530513	9.02694423	0.83413684	2.98083258	6.08683673	4.57905404	3.96815792	9.88279061	-1.77800309	1.64236275	10.30746764	0.61935219	-0.41932411	9.24529410	-1.26058303	-2.87041257	2.56930578	2.93490914	6.12311359	3.51489761	1.02016801	11.62655713
3380	33.79000000	7.98330273	0.27038291	7.26139870	8.99340462	0.56321891	2.86757655	6.68103855	2.62727802	4.38711598	9.52829711	-1.62851609	1.83129530	9.98025127	1.14199258	0.08981532	9.06615300	-1.05914514	-2.75083395	2.05301819	4.21819852	5.21042904	3.64877173	0.93856130	11.74705153
3381	33.80000000	7.67300551	0.25007779	7.14535657	8.93206416	0.11812927	2.82276345	6.14554606	0.84613899	4.76581991	9.20442270	-1.52452493	2.11272041	9.62309514	1.10913736	0.26626294	9.00735917	-0.56076214	-2.62324273	2.74219223	5.25005052	5.25433788	3.10524384	1.08624503	11.97141639
3382	33.81000000	7.48678848	0.20816293	7.01345976	8.89480362	-0.42888436	2.75128038	5.36913107	-0.42862072	5.84514976	8.66464533	-1.42603030	2.29116868	9.36100703	0.88919159	0.59472365	9.10780707	0.57155434	-2.43850998	3.74297652	6.04544201	6.08186505	3.28166053	1.23212582	11.76832265
3383	33.82000000	7.33919658	0.13460510	6.89921551	8.86175823	-0.99800007	2.69175103	4.43813165	-0.39125822	6.55416805	7.96487973	-1.59759813	2.32138749	9.26686499	0.81572216	0.80532044	9.21191480	1.70493564	-2.09580972	4.57517492	5.17224345	6.48843516	3.74086653	1.13763043	11.77910115
3384	33.83000000	7.31669719	0.08804380	6.79519382	8.83419296	-1.37022560	2.70389186	3.60454744	0.92289159	5.65416016	7.38641238	-1.79043557	2.26805463	9.40407977	0.75617901	0.92465909	9.26008248	1.82360745	-1.81127265	4.70459528	4.02960695	6.90808967	3.78554224	0.89111058	11.71419377
3385	33.84000000	7.34419803	0.06126232	6.74483559	8.82379004	-1.59664376	2.72567403	3.49791985	2.73511272	4.25346719	6.98732239	-2.05712710	2.24224914	9.52878856	0.48833231	0.70530309	9.23337904	1.51114042	-1.72882855	5.14951557	4.01519476	7.58335627	3.97840789	0.90418249	11.81260502
3386	33.85000000	7.38463170	0.07978879	6.73418406	8.75513812	-1.59460622	2.74682878	3.75408928	4.11826665	3.91622194	6.72805795	-2.41890702	2.26252845	9.52770473	0.16941650	0.61818193	9.18850587	1.30320437	-1.72956765	6.01636206	4.20931064	7.96416411	3.52845043	1.05073483	11.91036353
3387	33.86000000	7.50208903	0.06414038	6.74194390	8.60492000	-1.41377234	2.65555958	4.10813864	4.65121120	4.63808530	6.64715581	-2.61645183	2.37860818	9.47637453	-0.06703007	0.82237680	9.25633587	0.91642922	-1.68708910	6.36353481	3.71213281	8.11053718	3.64970250	0.97991994	11.81965650
3388	33.87000000	7.63179428	0.04093582	6.75100084	8.48478790	-1.14149090	2.54993188	5.04844642	5.10536157	4.50310950	6.72295745	-2.31873630	2.47171209	9.47288092	-0.17459460	0.86033599	9.36370142	0.34364625	-1.71677395	6.27414731	3.30409449	8.67935869	4.11185245	0.82472729	11.77259971
3389	33.88000000	7.70171521	0.06206223	6.81372801	8.45843741	-0.95727929	2.46474566	6.82140433	6.66135191	2.74037906	6.79577015	-1.77031372	2.68018534	9.48939543	-0.30928577	0.71028263	9.27161634	-0.25083298	-1.86299071	6.52881493	3.38826686	9.23155019	4.17437331	0.65112826	11.79774152
3390	33.89000000	7.70935002	0.08972876	6.93844552	8.41755795	-0.84736956	2.34815110	8.20284028	8.20417178	1.73710186	6.84398009	-1.35599859	2.94993593	9.45964561	-0.70008580	0.56812726	9.09752259	-0.65052896	-2.01894121	7.06348397	2.82413993	9.63319016	3.69247493	0.68975067	11.93961422
3391	33.90000000	7.75992759	0.10696835	7.10349756	8.38846016	-0.79591624	2.23139631	7.77636193	8.17891296	2.73817011	6.85347924	-0.96863956	2.99223468	9.41500374	-1.22711189	0.49041109	8.96495155	-0.94006557	-2.21876370	7.91795482	1.37318879	10.15010240	3.63662045	0.82425831	11.81790146
3392	33.91000000	7.84759500	0.13867045	7.06492476	8.43000455	-0.82296875	2.14803779	6.50203499	7.56772839	3.87174508	6.80334969	-0.87619279	2.94244337	9.33227168	-1.49864951	0.33539464	8.86694144	-1.02260639	-2.46661160	8.85126986	0.39075439	10.65450474	3.99605189	0.80121835	11.79492130
3393	33.92000000	7.88934979	0.18937471	6.95773939	8.52837115	-0.89931828	2.08510214	6.01857436	7.48609461	4.16618283	6.76761637	-1.05837091	2.87539211	9.36097967	-1.61110644	0.14127296	8.80398292	-0.88260201	-2.62280876	9.95400174	0.61512738	11.20078914	3.99171375	0.80420619	11.74357898
3394	33.93000000	7.94704184	0.24329482	7.24034755	8.70675836	-1.01862702	2.02254926	6.20542707	7.43927741	4.14344986	6.69982133	-1.44575722	2.86416056	9.52700526	-1.64370436	0.00242226	8.78881439	-0.80038283	-2.69572296	11.28786119	1.01489019	11.53897809	3.73307825	0.87924679	11.71634255
3395	33.94000000	7.99814222	0.25029349	7.28866167	8.78851118	-1.11133138	1.98471096	6.52463524	6.67842074	4.20428998	6.67050805	-2.10883623	2.87466291	9.72901029	-1.46257400	0.03317187	8.79955004	-0.60333703	-2.65069913	12.24454913	1.11931009	11.41920939	3.22769613	0.97767041	11.83291433
3396	33.95000000	7.97686727	0.20711921	7.13169427	8.84572280	-1.20606945	1.94762591	7.04369170	4.65101999	4.26465849	6.76907810	-2.94257161	2.92520292	9.88233508	-1.03069528	0.26193114	8.89527408	-0.44801967	-2.57766353	12.96970004	1.16740221	10.85898135	3.47013373	1.08516968	11.75393551
3397	33.96000000	8.02989106	0.21248391	7.40454198	8.87398126	-1.21027818	1.88644554	8.36694944	1.26316068	4.06987695	6.96216106	-3.80751759	2.99772954	9.90122238	-0.59688512	0.38116096	9.06686040	-0.56303518	-2.55100002	13.31930798	0.71252996	9.64523560	3.45249984	1.02231060	11.62607900
3398	33.97000000	8.10805413	0.11407778	7.50959730	8.83809492	-1.19551333	1.77697892	10.92185829	-2.62396484	3.36917596	7.17907954	-4.77977129	2.99729680	10.00465115	0.01955063	0.12145578	9.14875082	-0.45708337	-2.51384402	12.89941705	0.36652170	7.99911475	3.54182565	0.72337741	11.71556363
3399	33.98000000	8.13747380	-0.06390854	7.36562295	8.87273955	-1.18992827	1.65974902	13.43998977	-5.41400570	2.07862308	7.56896904	-5.90843913	2.87433712	10.14583864	0.46348821	0.32049140	9.11053408	-0.45703821	-2.55394652	12.65992683	1.58720123	6.77557278	3.22141781	0.80781764	11.93990849
3400	33.99000000	8.25936940	-0.09576813	7.34993316	9.02035211	-1.14268861	1.57105451	14.41107762	-5.52192698	0.45803871	8.11650557	-6.98184434	2.77987910	10.05043741	0.14555152	0.69413560	8.99767398	-0.33730816	-2.78091201	15.22020327	3.01574924	6.64198414	2.95141999	1.12425440	11.89881980
3401	34	8.36447295	-0.09222096	7.40070167	9.20500476	-1.22089541	1.58996083	14.22209836	-3.82425138	-0.29928154	8.67299268	-7.89145216	3.28466011	9.80162621	0.09514082	-0.03412992	9.02903274	-0.07448851	-3.02571767	19.04518523	2.38495306	6.07861540	3.35723399	0.86652402	11.83017431
